<?xml version="1.0" encoding="UTF-8"?>
<svg version="1.1" viewBox="0 0 4320 2160" xmlns="http://www.w3.org/2000/svg">
  <style>
    .logo {
      fill: none;
      stroke-width: 5;
    }
    @media (prefers-color-scheme: dark) {
      .frame {
        fill: #efefef;
      }
      .logo {
        stroke: #efefef;
      }
    }
    @media (prefers-color-scheme: light) {
      .frame {
        fill: #424242;
      }
      .logo {
        stroke: #424242;
      }
    }
  </style>
  <g>
    <g class="frame">
      <path transform="matrix(24.083,0,0,26.174,-37.985,-101.26)" d="m5 12v22h38v-22h-38m0-1h38a1 1 0 0 1 1 1v23h-40v-23a1 1 0 0 1 1-1z"/>
      <path transform="matrix(24.083,0,0,26.174,-37.985,-101.26)" d="m45 37v-0.586l-1.414-1.414h-39.172l-1.414 1.414v0.586h42m0 1h-42a1 1 0 0 1-1-1v-1l2-2h40l2 2v1a1 1 0 0 1-1 1z"/>
      <path transform="matrix(24.083,0,0,26.174,-37.985,-101.26)" d="m9 35h30l1 1h-32z"/>
      <path transform="matrix(24.083,0,0,26.174,-37.985,-101.26)" d="m21 12h6a1 1 0 0 1-1 1h-4a1 1 0 0 1-1-1z"/>
    </g>
    <g class="logo">
      <path d="m495.73 295.55 49.617 7.112-28.801-30.02z"/>
      <path d="m490.87 347.25 54.475-44.589-49.617-7.112z"/>
      <path d="m559.45 421.22 42.863-11.495-56.97-107.06z"/>
      <path d="m499.62 396.25 45.727-93.59-54.475 44.589z"/>
      <path d="m499.62 396.25 59.833 24.968-14.106-118.56z"/>
      <path d="m559.45 421.22 35.383 52.336 7.4802-63.832z"/>
      <path d="m499.62 396.25 27.798 80.556 32.036-55.588z"/>
      <path d="m466.77 494.27 32.85-98.021-77.539 29.539z"/>
      <path d="m594.84 473.55 77.581 4.018-70.098-67.85z"/>
      <path d="m527.42 476.8 67.418-3.2522-35.383-52.336z"/>
      <path d="m466.77 494.27 60.647-17.464-27.798-80.556z"/>
      <path d="m628.66 516.74 43.754-39.171-77.581-4.018z"/>
      <path d="m376.56 470.24 90.209 24.025-44.69-68.481z"/>
      <path d="m376.56 470.24 50.229 58.204 39.978-34.179z"/>
      <path d="m352.66 540.75 74.137-12.307-50.229-58.204z"/>
      <path d="m466.77 494.27 63.064 66.628-2.4164-84.091z"/>
      <path d="m529.84 560.9 65.002-87.346-67.418 3.2522z"/>
      <path d="m529.84 560.9 98.826-44.155-33.826-43.189z"/>
      <path d="m464.81 583.53 1.96-89.264-39.978 34.179z"/>
      <path d="m464.81 583.53 65.024-22.634-63.064-66.628z"/>
      <path d="m665.51 588.04 6.9076-110.47-43.754 39.171z"/>
      <path d="m322.08 587.15 25.576 4.3785 5.0025-50.775z"/>
      <path d="m665.51 588.04 72.877-19.66-65.97-90.811z"/>
      <path d="m331.16 605.43 16.488-13.896-25.576-4.3785z"/>
      <path d="m347.65 591.53 79.142-63.082-74.137 12.307z"/>
      <path d="m584.38 623.38 44.282-106.64-98.826 44.155z"/>
      <path d="m584.38 623.38 81.13-35.342-36.847-71.302z"/>
      <path d="m336.67 611.64 31.569 28.408-20.582-48.521z"/>
      <path d="m493.32 639.24 36.518-78.337-65.024 22.634z"/>
      <path d="m493.32 639.24 18.53 2.4934 17.989-80.836z"/>
      <path d="m347.65 591.53 117.16-7.9989-38.018-55.083z"/>
      <path d="m382.06 644.65-34.406-53.116 20.582 48.521z"/>
      <path d="m382.06 644.65 82.754-61.115-117.16 7.9989z"/>
      <path d="m511.85 641.73 72.534-18.346-54.546-62.486z"/>
      <path d="m382.06 644.65 55.903 10.062 26.85-71.176z"/>
      <path d="m437.96 654.71 55.355-15.472-28.505-55.705z"/>
      <path d="m521.49 653.88 62.892-30.496-72.534 18.346z"/>
      <path d="m399.19 660.66 38.771-5.9465-55.903-10.062z"/>
      <path d="m665.51 588.04 91.434 49.709-18.556-69.369z"/>
      <path d="m584.38 623.38 52.967 45.585 28.162-80.927z"/>
      <path d="m637.35 668.97 119.6-31.218-91.434-49.709z"/>
      <path d="m526.38 691.84 58.007-68.456-62.892 30.496z"/>
      <path d="m526.38 691.84 110.97-22.87-52.967-45.585z"/>
      <path d="m526.2 762.64 111.15-93.674-110.97 22.87z"/>
    </g>
  </g>
  <g transform="translate(2160)">
    <g class="frame">
      <path transform="matrix(24.083,0,0,26.174,-37.985,-101.26)" d="m5 12v22h38v-22h-38m0-1h38a1 1 0 0 1 1 1v23h-40v-23a1 1 0 0 1 1-1z"/>
      <path transform="matrix(24.083,0,0,26.174,-37.985,-101.26)" d="m45 37v-0.586l-1.414-1.414h-39.172l-1.414 1.414v0.586h42m0 1h-42a1 1 0 0 1-1-1v-1l2-2h40l2 2v1a1 1 0 0 1-1 1z"/>
      <path transform="matrix(24.083,0,0,26.174,-37.985,-101.26)" d="m9 35h30l1 1h-32z"/>
      <path transform="matrix(24.083,0,0,26.174,-37.985,-101.26)" d="m21 12h6a1 1 0 0 1-1 1h-4a1 1 0 0 1-1-1z"/>
    </g>
    <g class="logo">
      <path d="m495.73 295.55 49.617 7.112-28.801-30.02z"/>
      <path d="m490.87 347.25 54.475-44.589-49.617-7.112z"/>
      <path d="m559.45 421.22 42.863-11.495-56.97-107.06z"/>
      <path d="m499.62 396.25 45.727-93.59-54.475 44.589z"/>
      <path d="m499.62 396.25 59.833 24.968-14.106-118.56z"/>
      <path d="m559.45 421.22 35.383 52.336 7.4802-63.832z"/>
      <path d="m499.62 396.25 27.798 80.556 32.036-55.588z"/>
      <path d="m466.77 494.27 32.85-98.021-77.539 29.539z"/>
      <path d="m594.84 473.55 77.581 4.018-70.098-67.85z"/>
      <path d="m527.42 476.8 67.418-3.2522-35.383-52.336z"/>
      <path d="m466.77 494.27 60.647-17.464-27.798-80.556z"/>
      <path d="m628.66 516.74 43.754-39.171-77.581-4.018z"/>
      <path d="m376.56 470.24 90.209 24.025-44.69-68.481z"/>
      <path d="m376.56 470.24 50.229 58.204 39.978-34.179z"/>
      <path d="m352.66 540.75 74.137-12.307-50.229-58.204z"/>
      <path d="m466.77 494.27 63.064 66.628-2.4164-84.091z"/>
      <path d="m529.84 560.9 65.002-87.346-67.418 3.2522z"/>
      <path d="m529.84 560.9 98.826-44.155-33.826-43.189z"/>
      <path d="m464.81 583.53 1.96-89.264-39.978 34.179z"/>
      <path d="m464.81 583.53 65.024-22.634-63.064-66.628z"/>
      <path d="m665.51 588.04 6.9076-110.47-43.754 39.171z"/>
      <path d="m322.08 587.15 25.576 4.3785 5.0025-50.775z"/>
      <path d="m665.51 588.04 72.877-19.66-65.97-90.811z"/>
      <path d="m331.16 605.43 16.488-13.896-25.576-4.3785z"/>
      <path d="m347.65 591.53 79.142-63.082-74.137 12.307z"/>
      <path d="m584.38 623.38 44.282-106.64-98.826 44.155z"/>
      <path d="m584.38 623.38 81.13-35.342-36.847-71.302z"/>
      <path d="m336.67 611.64 31.569 28.408-20.582-48.521z"/>
      <path d="m493.32 639.24 36.518-78.337-65.024 22.634z"/>
      <path d="m493.32 639.24 18.53 2.4934 17.989-80.836z"/>
      <path d="m347.65 591.53 117.16-7.9989-38.018-55.083z"/>
      <path d="m382.06 644.65-34.406-53.116 20.582 48.521z"/>
      <path d="m382.06 644.65 82.754-61.115-117.16 7.9989z"/>
      <path d="m511.85 641.73 72.534-18.346-54.546-62.486z"/>
      <path d="m382.06 644.65 55.903 10.062 26.85-71.176z"/>
      <path d="m437.96 654.71 55.355-15.472-28.505-55.705z"/>
      <path d="m521.49 653.88 62.892-30.496-72.534 18.346z"/>
      <path d="m399.19 660.66 38.771-5.9465-55.903-10.062z"/>
      <path d="m665.51 588.04 91.434 49.709-18.556-69.369z"/>
      <path d="m584.38 623.38 52.967 45.585 28.162-80.927z"/>
      <path d="m637.35 668.97 119.6-31.218-91.434-49.709z"/>
      <path d="m526.38 691.84 58.007-68.456-62.892 30.496z"/>
      <path d="m526.38 691.84 110.97-22.87-52.967-45.585z"/>
      <path d="m526.2 762.64 111.15-93.674-110.97 22.87z"/>
    </g>
  </g>
  <g transform="translate(1080,1080)">
    <g class="frame">
      <path transform="matrix(24.083,0,0,26.174,-37.985,-101.26)" d="m5 12v22h38v-22h-38m0-1h38a1 1 0 0 1 1 1v23h-40v-23a1 1 0 0 1 1-1z"/>
      <path transform="matrix(24.083,0,0,26.174,-37.985,-101.26)" d="m45 37v-0.586l-1.414-1.414h-39.172l-1.414 1.414v0.586h42m0 1h-42a1 1 0 0 1-1-1v-1l2-2h40l2 2v1a1 1 0 0 1-1 1z"/>
      <path transform="matrix(24.083,0,0,26.174,-37.985,-101.26)" d="m9 35h30l1 1h-32z"/>
      <path transform="matrix(24.083,0,0,26.174,-37.985,-101.26)" d="m21 12h6a1 1 0 0 1-1 1h-4a1 1 0 0 1-1-1z"/>
    </g>
    <g class="logo">
      <path d="m495.73 295.55 49.617 7.112-28.801-30.02z"/>
      <path d="m490.87 347.25 54.475-44.589-49.617-7.112z"/>
      <path d="m559.45 421.22 42.863-11.495-56.97-107.06z"/>
      <path d="m499.62 396.25 45.727-93.59-54.475 44.589z"/>
      <path d="m499.62 396.25 59.833 24.968-14.106-118.56z"/>
      <path d="m559.45 421.22 35.383 52.336 7.4802-63.832z"/>
      <path d="m499.62 396.25 27.798 80.556 32.036-55.588z"/>
      <path d="m466.77 494.27 32.85-98.021-77.539 29.539z"/>
      <path d="m594.84 473.55 77.581 4.018-70.098-67.85z"/>
      <path d="m527.42 476.8 67.418-3.2522-35.383-52.336z"/>
      <path d="m466.77 494.27 60.647-17.464-27.798-80.556z"/>
      <path d="m628.66 516.74 43.754-39.171-77.581-4.018z"/>
      <path d="m376.56 470.24 90.209 24.025-44.69-68.481z"/>
      <path d="m376.56 470.24 50.229 58.204 39.978-34.179z"/>
      <path d="m352.66 540.75 74.137-12.307-50.229-58.204z"/>
      <path d="m466.77 494.27 63.064 66.628-2.4164-84.091z"/>
      <path d="m529.84 560.9 65.002-87.346-67.418 3.2522z"/>
      <path d="m529.84 560.9 98.826-44.155-33.826-43.189z"/>
      <path d="m464.81 583.53 1.96-89.264-39.978 34.179z"/>
      <path d="m464.81 583.53 65.024-22.634-63.064-66.628z"/>
      <path d="m665.51 588.04 6.9076-110.47-43.754 39.171z"/>
      <path d="m322.08 587.15 25.576 4.3785 5.0025-50.775z"/>
      <path d="m665.51 588.04 72.877-19.66-65.97-90.811z"/>
      <path d="m331.16 605.43 16.488-13.896-25.576-4.3785z"/>
      <path d="m347.65 591.53 79.142-63.082-74.137 12.307z"/>
      <path d="m584.38 623.38 44.282-106.64-98.826 44.155z"/>
      <path d="m584.38 623.38 81.13-35.342-36.847-71.302z"/>
      <path d="m336.67 611.64 31.569 28.408-20.582-48.521z"/>
      <path d="m493.32 639.24 36.518-78.337-65.024 22.634z"/>
      <path d="m493.32 639.24 18.53 2.4934 17.989-80.836z"/>
      <path d="m347.65 591.53 117.16-7.9989-38.018-55.083z"/>
      <path d="m382.06 644.65-34.406-53.116 20.582 48.521z"/>
      <path d="m382.06 644.65 82.754-61.115-117.16 7.9989z"/>
      <path d="m511.85 641.73 72.534-18.346-54.546-62.486z"/>
      <path d="m382.06 644.65 55.903 10.062 26.85-71.176z"/>
      <path d="m437.96 654.71 55.355-15.472-28.505-55.705z"/>
      <path d="m521.49 653.88 62.892-30.496-72.534 18.346z"/>
      <path d="m399.19 660.66 38.771-5.9465-55.903-10.062z"/>
      <path d="m665.51 588.04 91.434 49.709-18.556-69.369z"/>
      <path d="m584.38 623.38 52.967 45.585 28.162-80.927z"/>
      <path d="m637.35 668.97 119.6-31.218-91.434-49.709z"/>
      <path d="m526.38 691.84 58.007-68.456-62.892 30.496z"/>
      <path d="m526.38 691.84 110.97-22.87-52.967-45.585z"/>
      <path d="m526.2 762.64 111.15-93.674-110.97 22.87z"/>
    </g>
  </g>
  <g transform="translate(3240,1080)">
    <g class="frame">
      <path transform="matrix(24.083,0,0,26.174,-37.985,-101.26)" d="m5 12v22h38v-22h-38m0-1h38a1 1 0 0 1 1 1v23h-40v-23a1 1 0 0 1 1-1z"/>
      <path transform="matrix(24.083,0,0,26.174,-37.985,-101.26)" d="m45 37v-0.586l-1.414-1.414h-39.172l-1.414 1.414v0.586h42m0 1h-42a1 1 0 0 1-1-1v-1l2-2h40l2 2v1a1 1 0 0 1-1 1z"/>
      <path transform="matrix(24.083,0,0,26.174,-37.985,-101.26)" d="m9 35h30l1 1h-32z"/>
      <path transform="matrix(24.083,0,0,26.174,-37.985,-101.26)" d="m21 12h6a1 1 0 0 1-1 1h-4a1 1 0 0 1-1-1z"/>
    </g>
    <g class="logo">
      <path d="m495.73 295.55 49.617 7.112-28.801-30.02z"/>
      <path d="m490.87 347.25 54.475-44.589-49.617-7.112z"/>
      <path d="m559.45 421.22 42.863-11.495-56.97-107.06z"/>
      <path d="m499.62 396.25 45.727-93.59-54.475 44.589z"/>
      <path d="m499.62 396.25 59.833 24.968-14.106-118.56z"/>
      <path d="m559.45 421.22 35.383 52.336 7.4802-63.832z"/>
      <path d="m499.62 396.25 27.798 80.556 32.036-55.588z"/>
      <path d="m466.77 494.27 32.85-98.021-77.539 29.539z"/>
      <path d="m594.84 473.55 77.581 4.018-70.098-67.85z"/>
      <path d="m527.42 476.8 67.418-3.2522-35.383-52.336z"/>
      <path d="m466.77 494.27 60.647-17.464-27.798-80.556z"/>
      <path d="m628.66 516.74 43.754-39.171-77.581-4.018z"/>
      <path d="m376.56 470.24 90.209 24.025-44.69-68.481z"/>
      <path d="m376.56 470.24 50.229 58.204 39.978-34.179z"/>
      <path d="m352.66 540.75 74.137-12.307-50.229-58.204z"/>
      <path d="m466.77 494.27 63.064 66.628-2.4164-84.091z"/>
      <path d="m529.84 560.9 65.002-87.346-67.418 3.2522z"/>
      <path d="m529.84 560.9 98.826-44.155-33.826-43.189z"/>
      <path d="m464.81 583.53 1.96-89.264-39.978 34.179z"/>
      <path d="m464.81 583.53 65.024-22.634-63.064-66.628z"/>
      <path d="m665.51 588.04 6.9076-110.47-43.754 39.171z"/>
      <path d="m322.08 587.15 25.576 4.3785 5.0025-50.775z"/>
      <path d="m665.51 588.04 72.877-19.66-65.97-90.811z"/>
      <path d="m331.16 605.43 16.488-13.896-25.576-4.3785z"/>
      <path d="m347.65 591.53 79.142-63.082-74.137 12.307z"/>
      <path d="m584.38 623.38 44.282-106.64-98.826 44.155z"/>
      <path d="m584.38 623.38 81.13-35.342-36.847-71.302z"/>
      <path d="m336.67 611.64 31.569 28.408-20.582-48.521z"/>
      <path d="m493.32 639.24 36.518-78.337-65.024 22.634z"/>
      <path d="m493.32 639.24 18.53 2.4934 17.989-80.836z"/>
      <path d="m347.65 591.53 117.16-7.9989-38.018-55.083z"/>
      <path d="m382.06 644.65-34.406-53.116 20.582 48.521z"/>
      <path d="m382.06 644.65 82.754-61.115-117.16 7.9989z"/>
      <path d="m511.85 641.73 72.534-18.346-54.546-62.486z"/>
      <path d="m382.06 644.65 55.903 10.062 26.85-71.176z"/>
      <path d="m437.96 654.71 55.355-15.472-28.505-55.705z"/>
      <path d="m521.49 653.88 62.892-30.496-72.534 18.346z"/>
      <path d="m399.19 660.66 38.771-5.9465-55.903-10.062z"/>
      <path d="m665.51 588.04 91.434 49.709-18.556-69.369z"/>
      <path d="m584.38 623.38 52.967 45.585 28.162-80.927z"/>
      <path d="m637.35 668.97 119.6-31.218-91.434-49.709z"/>
      <path d="m526.38 691.84 58.007-68.456-62.892 30.496z"/>
      <path d="m526.38 691.84 110.97-22.87-52.967-45.585z"/>
      <path d="m526.2 762.64 111.15-93.674-110.97 22.87z"/>
    </g>
  </g>
</svg>
