<svg width="512" height="512" xmlns="http://www.w3.org/2000/svg"><style>@keyframes blink{0%{opacity:1}40%{opacity:0}}.letter{opacity:0}</style><path opacity=".95" fill="#212121" stroke="#efefef" stroke-width="16" stroke-linejoin="round" d="M32 96h448v320H32z"/><path d="M70.819 154.676l-18.205 28.882 119.905 71.768-119.905 72.817L71.87 355.8l134.258-83.67v-33.784z" fill="#76ff03"/><g fill="#76ff03"><path class="letter" d="M359.113 156.251h70.018l4.2-32.732H246.037v32.732h72.468v208.826h40.61z" style="animation:blink .2s linear 2.6s 1 reverse forwards"/><path class="letter" d="M431.282 244.298c0-75.969-31.333-125.68-91.898-125.68-60.564 0-91.897 51.462-91.897 126.03 0 75.968 31.333 125.155 91.897 125.155 60.565 0 91.898-50.937 91.898-125.505zm-42.01 0c0 62.315-14.004 93.823-49.888 93.823-34.833 0-49.887-30.983-49.887-93.473 0-62.49 14.354-94.348 49.887-94.348 35.534 0 49.887 31.508 49.887 93.998z" style="animation:blink .2s linear 2.4s 1 forwards"/><path class="letter" d="M421.88 123.519h-48.837l-32.908 161.914-34.483-161.914H256.99l-13.654 241.558h36.41L284.47 247.8c1.05-33.608.35-68.617-1.05-88.572l38.16 163.315h35.358l35.534-163.315c-1.05 20.83-1.4 52.863.175 88.222l5.776 117.628h37.11z" style="animation:blink .2s linear 2.2s 1 forwards"/><path class="letter" d="M389.846 306.963l16.804 58.114h43.06L372.692 123.52h-50.413l-76.843 241.558h41.31l16.804-58.114zm-77.894-31.332l34.833-120.605 34.484 120.605z" style="animation:blink .2s linear .2s 1 forwards,blink .2s linear 1.4s 1 forwards,blink .2s linear 2s 1 forwards"/><path class="letter" d="M426.532 296.81c0-45.51-30.632-62.665-71.417-74.743-43.236-12.953-56.539-21.53-56.539-40.434 0-20.83 19.08-31.158 43.76-31.158 20.13 0 40.085 6.652 57.065 21.355l21.355-24.156c-20.48-18.554-46.036-29.057-80.87-29.057-47.611 0-82.97 25.907-82.97 65.291 0 37.81 26.782 56.714 77.894 71.943 38.51 11.553 49.537 21.705 49.537 42.885 0 26.081-22.93 39.035-50.062 39.035-28.182 0-49.362-9.453-66.516-25.206l-22.23 24.856c20.304 19.78 49.536 32.382 88.92 32.382 58.115 0 92.073-30.107 92.073-72.992z" style="animation:blink .2s linear 1 forwards,blink .2s linear .6s 1 forwards,blink .2s linear 1.8s 1 forwards"/><path class="letter" d="M413.883 193.36c0-46.736-32.208-69.841-94.173-69.841h-67.392v241.558h40.61v-99.424h26.432l60.74 99.424h47.26l-68.44-105.2c30.807-9.103 54.963-30.808 54.963-66.516zm-42.536 0c0 30.458-17.504 42.536-48.487 42.536h-29.932v-82.27h29.057c33.258 0 49.362 11.728 49.362 39.735z" style="animation:blink .2s linear 1.6s 1 forwards"/><path class="letter" d="M350.563 326.568l-57.239-203.05h-43.41l76.493 241.56h46.561l76.494-241.56h-41.135z" style="animation:blink .2s linear 1.2s 1 forwards"/><path class="letter" d="M412.381 123.519H267.096V154.5h52.162v179.42h-52.162v31.157H412.38V333.92h-52.163V154.5h52.163z" style="animation:blink .2s linear 1s 1 forwards"/><path class="letter" d="M368.92 365.077h52.863V123.52h-36.058v110.1c0 43.41 4.2 81.045 5.776 95.574l-77.019-205.675h-52.688v241.558h36.06V255.326c0-39.21-4.377-81.395-5.777-95.749z" style="animation:blink .2s linear .8s 1 forwards"/><path class="letter" d="M296.107 365.077V123.52h-40.61v241.558zm1.75-129.006l86.646 129.006h48.662L341.968 233.27l84.546-109.751h-44.636z" style="animation:blink .2s linear .4s 1 forwards"/></g></svg>